<svg width="55" height="26" viewBox="0 0 55 26" fill="none" xmlns="http://www.w3.org/2000/svg">
<path d="M10.076 5.3L11.732 7.916L3.944 12.464L11.732 16.928L10.016 19.628L0.668 13.82V11.132L10.076 5.3ZM22.1266 6.836C23.2386 6.836 24.1346 7.112 24.8146 7.664C25.4946 8.216 25.9906 8.996 26.3026 10.004C26.6226 11.012 26.7826 12.208 26.7826 13.592C26.7826 14.904 26.5906 16.076 26.2066 17.108C25.8226 18.132 25.2666 18.94 24.5386 19.532C23.8106 20.116 22.9266 20.408 21.8866 20.408C20.6466 20.408 19.6386 19.964 18.8626 19.076V24.92L15.0706 25.316V7.256H18.4306L18.5986 8.684C19.1186 8.02 19.6866 7.548 20.3026 7.268C20.9186 6.98 21.5266 6.836 22.1266 6.836ZM20.9506 9.632C20.5106 9.632 20.1226 9.764 19.7866 10.028C19.4506 10.292 19.1426 10.652 18.8626 11.108V16.484C19.1266 16.876 19.4026 17.164 19.6906 17.348C19.9866 17.532 20.3346 17.624 20.7346 17.624C21.4066 17.624 21.9306 17.32 22.3066 16.712C22.6826 16.096 22.8706 15.072 22.8706 13.64C22.8706 12.584 22.7946 11.768 22.6426 11.192C22.4906 10.608 22.2706 10.204 21.9826 9.98C21.6946 9.748 21.3506 9.632 20.9506 9.632ZM41.9439 3.092L54.9039 11.108V13.82L45.5559 19.628L43.8399 17.048L51.6399 12.464L40.2639 5.816L41.9439 3.092ZM33.8199 22.688L30.8559 21.332L40.9479 0.391999L43.8879 1.748L33.8199 22.688Z" fill="#7650F9"/>
</svg>
