<svg width="127" height="26" viewBox="0 0 127 26" fill="none" xmlns="http://www.w3.org/2000/svg">
<path d="M10.076 5.3L11.732 7.916L3.944 12.464L11.732 16.928L10.016 19.628L0.668 13.82V11.132L10.076 5.3ZM22.1266 6.836C23.2386 6.836 24.1346 7.112 24.8146 7.664C25.4946 8.216 25.9906 8.996 26.3026 10.004C26.6226 11.012 26.7826 12.208 26.7826 13.592C26.7826 14.904 26.5906 16.076 26.2066 17.108C25.8226 18.132 25.2666 18.94 24.5386 19.532C23.8106 20.116 22.9266 20.408 21.8866 20.408C20.6466 20.408 19.6386 19.964 18.8626 19.076V24.92L15.0706 25.316V7.256H18.4306L18.5986 8.684C19.1186 8.02 19.6866 7.548 20.3026 7.268C20.9186 6.98 21.5266 6.836 22.1266 6.836ZM20.9506 9.632C20.5106 9.632 20.1226 9.764 19.7866 10.028C19.4506 10.292 19.1426 10.652 18.8626 11.108V16.484C19.1266 16.876 19.4026 17.164 19.6906 17.348C19.9866 17.532 20.3346 17.624 20.7346 17.624C21.4066 17.624 21.9306 17.32 22.3066 16.712C22.6826 16.096 22.8706 15.072 22.8706 13.64C22.8706 12.584 22.7946 11.768 22.6426 11.192C22.4906 10.608 22.2706 10.204 21.9826 9.98C21.6946 9.748 21.3506 9.632 20.9506 9.632ZM29.5813 20V17.456H31.2613V9.776H29.5813V7.256H34.1533L34.8493 10.124C35.3053 9.028 35.8853 8.212 36.5893 7.676C37.3013 7.14 38.1693 6.872 39.1933 6.872C39.6253 6.872 40.0093 6.908 40.3453 6.98C40.6813 7.044 40.9973 7.136 41.2933 7.256L40.1413 10.388C39.9093 10.324 39.6773 10.276 39.4453 10.244C39.2133 10.212 38.9573 10.196 38.6773 10.196C37.8453 10.196 37.1133 10.536 36.4813 11.216C35.8573 11.896 35.3813 12.76 35.0533 13.808V17.456H37.5733V20H29.5813ZM38.2093 12.584V8.864L38.7733 7.256H41.2933L40.5853 12.584H38.2093ZM54.5799 16.328C54.5799 16.808 54.6439 17.156 54.7719 17.372C54.9079 17.588 55.1239 17.752 55.4199 17.864L54.6399 20.36C53.8879 20.288 53.2519 20.124 52.7319 19.868C52.2199 19.604 51.8159 19.208 51.5199 18.68C51.0319 19.264 50.4079 19.7 49.6479 19.988C48.8879 20.268 48.1119 20.408 47.3199 20.408C46.0079 20.408 44.9599 20.036 44.1759 19.292C43.3999 18.54 43.0119 17.576 43.0119 16.4C43.0119 15.016 43.5519 13.948 44.6319 13.196C45.7199 12.444 47.2479 12.068 49.2159 12.068H50.9319V11.588C50.9319 10.924 50.7159 10.432 50.2839 10.112C49.8599 9.792 49.2359 9.632 48.4119 9.632C48.0039 9.632 47.4799 9.692 46.8399 9.812C46.1999 9.924 45.5599 10.088 44.9199 10.304L44.0439 7.784C44.8679 7.472 45.7239 7.236 46.6119 7.076C47.5079 6.916 48.3079 6.836 49.0119 6.836C50.9079 6.836 52.3079 7.224 53.2119 8C54.1239 8.768 54.5799 9.88 54.5799 11.336V16.328ZM48.6279 17.696C49.0359 17.696 49.4639 17.576 49.9119 17.336C50.3599 17.088 50.6999 16.74 50.9319 16.292V14.228H49.9959C48.9399 14.228 48.1639 14.392 47.6679 14.72C47.1719 15.04 46.9239 15.512 46.9239 16.136C46.9239 16.624 47.0719 17.008 47.3679 17.288C47.6719 17.56 48.0919 17.696 48.6279 17.696ZM58.2425 20V7.256H61.5545L61.8185 8.732C62.3865 8.092 62.9865 7.616 63.6185 7.304C64.2505 6.992 64.9705 6.836 65.7785 6.836C66.8665 6.836 67.7225 7.168 68.3465 7.832C68.9705 8.496 69.2825 9.432 69.2825 10.64V20H65.4905V11.732C65.4905 11.212 65.4545 10.8 65.3825 10.496C65.3105 10.184 65.1825 9.964 64.9985 9.836C64.8225 9.7 64.5785 9.632 64.2665 9.632C64.0025 9.632 63.7425 9.692 63.4865 9.812C63.2385 9.924 62.9945 10.088 62.7545 10.304C62.5145 10.52 62.2745 10.78 62.0345 11.084V20H58.2425ZM83.3611 16.328C83.3611 16.808 83.4251 17.156 83.5531 17.372C83.6891 17.588 83.9051 17.752 84.2011 17.864L83.4211 20.36C82.6691 20.288 82.0331 20.124 81.5131 19.868C81.0011 19.604 80.5971 19.208 80.3011 18.68C79.8131 19.264 79.1891 19.7 78.4291 19.988C77.6691 20.268 76.8931 20.408 76.1011 20.408C74.7891 20.408 73.7411 20.036 72.9571 19.292C72.1811 18.54 71.7931 17.576 71.7931 16.4C71.7931 15.016 72.3331 13.948 73.4131 13.196C74.5011 12.444 76.0291 12.068 77.9971 12.068H79.7131V11.588C79.7131 10.924 79.4971 10.432 79.0651 10.112C78.6411 9.792 78.0171 9.632 77.1931 9.632C76.7851 9.632 76.2611 9.692 75.6211 9.812C74.9811 9.924 74.3411 10.088 73.7011 10.304L72.8251 7.784C73.6491 7.472 74.5051 7.236 75.3931 7.076C76.2891 6.916 77.0891 6.836 77.7931 6.836C79.6891 6.836 81.0891 7.224 81.9931 8C82.9051 8.768 83.3611 9.88 83.3611 11.336V16.328ZM77.4091 17.696C77.8171 17.696 78.2451 17.576 78.6931 17.336C79.1411 17.088 79.4811 16.74 79.7131 16.292V14.228H78.7771C77.7211 14.228 76.9451 14.392 76.4491 14.72C75.9531 15.04 75.7051 15.512 75.7051 16.136C75.7051 16.624 75.8531 17.008 76.1491 17.288C76.4531 17.56 76.8731 17.696 77.4091 17.696ZM99.0718 7.256L94.8238 20C94.4478 21.128 93.9478 22.072 93.3238 22.832C92.7078 23.6 91.9358 24.192 91.0078 24.608C90.0878 25.024 88.9798 25.268 87.6838 25.34L87.2518 22.664C88.0918 22.56 88.7678 22.404 89.2798 22.196C89.7998 21.988 90.2158 21.704 90.5278 21.344C90.8478 20.992 91.1238 20.544 91.3558 20H90.0598L86.0158 7.256H90.0238L92.4958 17.576L95.1838 7.256H99.0718ZM113.897 3.092L126.857 11.108V13.82L117.509 19.628L115.793 17.048L123.593 12.464L112.217 5.816L113.897 3.092ZM105.773 22.688L102.809 21.332L112.901 0.391999L115.841 1.748L105.773 22.688Z" fill="#fff"/>
</svg>
